ISO-10303-21;
HEADER;
/* Generated by software containing ST-Developer
 * from STEP Tools, Inc. (www.steptools.com) 
 */

FILE_DESCRIPTION(
/* description */ (''),
/* implementation_level */ '2;1');

FILE_NAME(
/* name */ 'led 3 mm amarillo.step',
/* time_stamp */ '2023-10-04T18:39:15-06:00',
/* author */ (''),
/* organization */ (''),
/* preprocessor_version */ 'ST-DEVELOPER v20',
/* originating_system */ 'Autodesk Translation Framework v12.9.0.99',
/* authorisation */ '');

FILE_SCHEMA (('AUTOMOTIVE_DESIGN { 1 0 10303 214 3 1 1 }'));
ENDSEC;

DATA;
#10=MECHANICAL_DESIGN_GEOMETRIC_PRESENTATION_REPRESENTATION('',(#264,#265,
#266),#475);
#11=SHAPE_REPRESENTATION_RELATIONSHIP('SRR','None',#482,#12);
#12=ADVANCED_BREP_SHAPE_REPRESENTATION('',(#13),#474);
#13=MANIFOLD_SOLID_BREP('Cuerpo1',#283);
#14=SPHERICAL_SURFACE('',#312,1.5);
#15=CYLINDRICAL_SURFACE('',#310,1.95);
#16=CYLINDRICAL_SURFACE('',#316,1.5);
#17=FACE_BOUND('',#53,.T.);
#18=FACE_BOUND('',#54,.T.);
#19=CIRCLE('',#309,1.95);
#20=CIRCLE('',#311,1.95);
#21=CIRCLE('',#313,1.5);
#22=CIRCLE('',#314,1.5);
#23=CIRCLE('',#315,1.5);
#24=CIRCLE('',#317,1.5);
#25=FACE_OUTER_BOUND('',#41,.T.);
#26=FACE_OUTER_BOUND('',#42,.T.);
#27=FACE_OUTER_BOUND('',#43,.T.);
#28=FACE_OUTER_BOUND('',#44,.T.);
#29=FACE_OUTER_BOUND('',#45,.T.);
#30=FACE_OUTER_BOUND('',#46,.T.);
#31=FACE_OUTER_BOUND('',#47,.T.);
#32=FACE_OUTER_BOUND('',#48,.T.);
#33=FACE_OUTER_BOUND('',#49,.T.);
#34=FACE_OUTER_BOUND('',#50,.T.);
#35=FACE_OUTER_BOUND('',#51,.T.);
#36=FACE_OUTER_BOUND('',#52,.T.);
#37=FACE_OUTER_BOUND('',#55,.T.);
#38=FACE_OUTER_BOUND('',#56,.T.);
#39=FACE_OUTER_BOUND('',#57,.T.);
#40=FACE_OUTER_BOUND('',#58,.T.);
#41=EDGE_LOOP('',(#179,#180,#181,#182));
#42=EDGE_LOOP('',(#183,#184,#185,#186));
#43=EDGE_LOOP('',(#187,#188,#189,#190));
#44=EDGE_LOOP('',(#191,#192,#193,#194));
#45=EDGE_LOOP('',(#195,#196,#197,#198));
#46=EDGE_LOOP('',(#199,#200,#201,#202));
#47=EDGE_LOOP('',(#203,#204,#205,#206));
#48=EDGE_LOOP('',(#207,#208,#209,#210));
#49=EDGE_LOOP('',(#211,#212,#213,#214));
#50=EDGE_LOOP('',(#215,#216,#217,#218));
#51=EDGE_LOOP('',(#219,#220,#221,#222,#223));
#52=EDGE_LOOP('',(#224,#225));
#53=EDGE_LOOP('',(#226,#227,#228,#229));
#54=EDGE_LOOP('',(#230,#231,#232,#233));
#55=EDGE_LOOP('',(#234,#235,#236,#237));
#56=EDGE_LOOP('',(#238,#239,#240,#241));
#57=EDGE_LOOP('',(#242,#243,#244,#245,#246));
#58=EDGE_LOOP('',(#247,#248,#249,#250));
#59=LINE('',#399,#89);
#60=LINE('',#401,#90);
#61=LINE('',#403,#91);
#62=LINE('',#404,#92);
#63=LINE('',#407,#93);
#64=LINE('',#409,#94);
#65=LINE('',#410,#95);
#66=LINE('',#413,#96);
#67=LINE('',#415,#97);
#68=LINE('',#416,#98);
#69=LINE('',#418,#99);
#70=LINE('',#419,#100);
#71=LINE('',#424,#101);
#72=LINE('',#426,#102);
#73=LINE('',#428,#103);
#74=LINE('',#429,#104);
#75=LINE('',#432,#105);
#76=LINE('',#434,#106);
#77=LINE('',#435,#107);
#78=LINE('',#438,#108);
#79=LINE('',#440,#109);
#80=LINE('',#441,#110);
#81=LINE('',#443,#111);
#82=LINE('',#444,#112);
#83=LINE('',#449,#113);
#84=LINE('',#451,#114);
#85=LINE('',#453,#115);
#86=LINE('',#455,#116);
#87=LINE('',#456,#117);
#88=LINE('',#469,#118);
#89=VECTOR('',#323,10.);
#90=VECTOR('',#324,10.);
#91=VECTOR('',#325,10.);
#92=VECTOR('',#326,10.);
#93=VECTOR('',#329,10.);
#94=VECTOR('',#330,10.);
#95=VECTOR('',#331,10.);
#96=VECTOR('',#334,10.);
#97=VECTOR('',#335,10.);
#98=VECTOR('',#336,10.);
#99=VECTOR('',#339,10.);
#100=VECTOR('',#340,10.);
#101=VECTOR('',#345,10.);
#102=VECTOR('',#346,10.);
#103=VECTOR('',#347,10.);
#104=VECTOR('',#348,10.);
#105=VECTOR('',#351,10.);
#106=VECTOR('',#352,10.);
#107=VECTOR('',#353,10.);
#108=VECTOR('',#356,10.);
#109=VECTOR('',#357,10.);
#110=VECTOR('',#358,10.);
#111=VECTOR('',#361,10.);
#112=VECTOR('',#362,10.);
#113=VECTOR('',#367,10.);
#114=VECTOR('',#368,10.);
#115=VECTOR('',#369,10.);
#116=VECTOR('',#370,10.);
#117=VECTOR('',#371,10.);
#118=VECTOR('',#390,1.5);
#119=VERTEX_POINT('',#397);
#120=VERTEX_POINT('',#398);
#121=VERTEX_POINT('',#400);
#122=VERTEX_POINT('',#402);
#123=VERTEX_POINT('',#406);
#124=VERTEX_POINT('',#408);
#125=VERTEX_POINT('',#412);
#126=VERTEX_POINT('',#414);
#127=VERTEX_POINT('',#422);
#128=VERTEX_POINT('',#423);
#129=VERTEX_POINT('',#425);
#130=VERTEX_POINT('',#427);
#131=VERTEX_POINT('',#431);
#132=VERTEX_POINT('',#433);
#133=VERTEX_POINT('',#437);
#134=VERTEX_POINT('',#439);
#135=VERTEX_POINT('',#447);
#136=VERTEX_POINT('',#448);
#137=VERTEX_POINT('',#450);
#138=VERTEX_POINT('',#452);
#139=VERTEX_POINT('',#454);
#140=VERTEX_POINT('',#462);
#141=VERTEX_POINT('',#463);
#142=VERTEX_POINT('',#465);
#143=EDGE_CURVE('',#119,#120,#59,.T.);
#144=EDGE_CURVE('',#119,#121,#60,.T.);
#145=EDGE_CURVE('',#122,#121,#61,.T.);
#146=EDGE_CURVE('',#120,#122,#62,.T.);
#147=EDGE_CURVE('',#120,#123,#63,.T.);
#148=EDGE_CURVE('',#124,#122,#64,.T.);
#149=EDGE_CURVE('',#123,#124,#65,.T.);
#150=EDGE_CURVE('',#123,#125,#66,.T.);
#151=EDGE_CURVE('',#126,#124,#67,.T.);
#152=EDGE_CURVE('',#125,#126,#68,.T.);
#153=EDGE_CURVE('',#125,#119,#69,.T.);
#154=EDGE_CURVE('',#121,#126,#70,.T.);
#155=EDGE_CURVE('',#127,#128,#71,.T.);
#156=EDGE_CURVE('',#127,#129,#72,.T.);
#157=EDGE_CURVE('',#130,#129,#73,.T.);
#158=EDGE_CURVE('',#128,#130,#74,.T.);
#159=EDGE_CURVE('',#128,#131,#75,.T.);
#160=EDGE_CURVE('',#132,#130,#76,.T.);
#161=EDGE_CURVE('',#131,#132,#77,.T.);
#162=EDGE_CURVE('',#131,#133,#78,.T.);
#163=EDGE_CURVE('',#134,#132,#79,.T.);
#164=EDGE_CURVE('',#133,#134,#80,.T.);
#165=EDGE_CURVE('',#133,#127,#81,.T.);
#166=EDGE_CURVE('',#129,#134,#82,.T.);
#167=EDGE_CURVE('',#135,#136,#83,.T.);
#168=EDGE_CURVE('',#137,#135,#84,.T.);
#169=EDGE_CURVE('',#138,#137,#85,.T.);
#170=EDGE_CURVE('',#139,#138,#86,.T.);
#171=EDGE_CURVE('',#136,#139,#87,.T.);
#172=EDGE_CURVE('',#136,#139,#19,.T.);
#173=EDGE_CURVE('',#135,#138,#20,.T.);
#174=EDGE_CURVE('',#140,#141,#21,.T.);
#175=EDGE_CURVE('',#142,#141,#22,.T.);
#176=EDGE_CURVE('',#141,#140,#23,.T.);
#177=EDGE_CURVE('',#140,#137,#88,.T.);
#178=EDGE_CURVE('',#137,#137,#24,.T.);
#179=ORIENTED_EDGE('',*,*,#143,.F.);
#180=ORIENTED_EDGE('',*,*,#144,.T.);
#181=ORIENTED_EDGE('',*,*,#145,.F.);
#182=ORIENTED_EDGE('',*,*,#146,.F.);
#183=ORIENTED_EDGE('',*,*,#147,.F.);
#184=ORIENTED_EDGE('',*,*,#146,.T.);
#185=ORIENTED_EDGE('',*,*,#148,.F.);
#186=ORIENTED_EDGE('',*,*,#149,.F.);
#187=ORIENTED_EDGE('',*,*,#150,.F.);
#188=ORIENTED_EDGE('',*,*,#149,.T.);
#189=ORIENTED_EDGE('',*,*,#151,.F.);
#190=ORIENTED_EDGE('',*,*,#152,.F.);
#191=ORIENTED_EDGE('',*,*,#153,.F.);
#192=ORIENTED_EDGE('',*,*,#152,.T.);
#193=ORIENTED_EDGE('',*,*,#154,.F.);
#194=ORIENTED_EDGE('',*,*,#144,.F.);
#195=ORIENTED_EDGE('',*,*,#154,.T.);
#196=ORIENTED_EDGE('',*,*,#151,.T.);
#197=ORIENTED_EDGE('',*,*,#148,.T.);
#198=ORIENTED_EDGE('',*,*,#145,.T.);
#199=ORIENTED_EDGE('',*,*,#155,.F.);
#200=ORIENTED_EDGE('',*,*,#156,.T.);
#201=ORIENTED_EDGE('',*,*,#157,.F.);
#202=ORIENTED_EDGE('',*,*,#158,.F.);
#203=ORIENTED_EDGE('',*,*,#159,.F.);
#204=ORIENTED_EDGE('',*,*,#158,.T.);
#205=ORIENTED_EDGE('',*,*,#160,.F.);
#206=ORIENTED_EDGE('',*,*,#161,.F.);
#207=ORIENTED_EDGE('',*,*,#162,.F.);
#208=ORIENTED_EDGE('',*,*,#161,.T.);
#209=ORIENTED_EDGE('',*,*,#163,.F.);
#210=ORIENTED_EDGE('',*,*,#164,.F.);
#211=ORIENTED_EDGE('',*,*,#165,.F.);
#212=ORIENTED_EDGE('',*,*,#164,.T.);
#213=ORIENTED_EDGE('',*,*,#166,.F.);
#214=ORIENTED_EDGE('',*,*,#156,.F.);
#215=ORIENTED_EDGE('',*,*,#166,.T.);
#216=ORIENTED_EDGE('',*,*,#163,.T.);
#217=ORIENTED_EDGE('',*,*,#160,.T.);
#218=ORIENTED_EDGE('',*,*,#157,.T.);
#219=ORIENTED_EDGE('',*,*,#167,.F.);
#220=ORIENTED_EDGE('',*,*,#168,.F.);
#221=ORIENTED_EDGE('',*,*,#169,.F.);
#222=ORIENTED_EDGE('',*,*,#170,.F.);
#223=ORIENTED_EDGE('',*,*,#171,.F.);
#224=ORIENTED_EDGE('',*,*,#171,.T.);
#225=ORIENTED_EDGE('',*,*,#172,.F.);
#226=ORIENTED_EDGE('',*,*,#143,.T.);
#227=ORIENTED_EDGE('',*,*,#147,.T.);
#228=ORIENTED_EDGE('',*,*,#150,.T.);
#229=ORIENTED_EDGE('',*,*,#153,.T.);
#230=ORIENTED_EDGE('',*,*,#155,.T.);
#231=ORIENTED_EDGE('',*,*,#159,.T.);
#232=ORIENTED_EDGE('',*,*,#162,.T.);
#233=ORIENTED_EDGE('',*,*,#165,.T.);
#234=ORIENTED_EDGE('',*,*,#167,.T.);
#235=ORIENTED_EDGE('',*,*,#172,.T.);
#236=ORIENTED_EDGE('',*,*,#170,.T.);
#237=ORIENTED_EDGE('',*,*,#173,.F.);
#238=ORIENTED_EDGE('',*,*,#174,.T.);
#239=ORIENTED_EDGE('',*,*,#175,.F.);
#240=ORIENTED_EDGE('',*,*,#175,.T.);
#241=ORIENTED_EDGE('',*,*,#176,.T.);
#242=ORIENTED_EDGE('',*,*,#174,.F.);
#243=ORIENTED_EDGE('',*,*,#177,.T.);
#244=ORIENTED_EDGE('',*,*,#178,.F.);
#245=ORIENTED_EDGE('',*,*,#177,.F.);
#246=ORIENTED_EDGE('',*,*,#176,.F.);
#247=ORIENTED_EDGE('',*,*,#168,.T.);
#248=ORIENTED_EDGE('',*,*,#173,.T.);
#249=ORIENTED_EDGE('',*,*,#169,.T.);
#250=ORIENTED_EDGE('',*,*,#178,.T.);
#251=PLANE('',#297);
#252=PLANE('',#298);
#253=PLANE('',#299);
#254=PLANE('',#300);
#255=PLANE('',#301);
#256=PLANE('',#302);
#257=PLANE('',#303);
#258=PLANE('',#304);
#259=PLANE('',#305);
#260=PLANE('',#306);
#261=PLANE('',#307);
#262=PLANE('',#308);
#263=PLANE('',#318);
#264=STYLED_ITEM('',(#491),#267);
#265=STYLED_ITEM('',(#491),#274);
#266=STYLED_ITEM('',(#492),#13);
#267=ADVANCED_FACE('',(#25),#251,.T.);
#268=ADVANCED_FACE('',(#26),#252,.T.);
#269=ADVANCED_FACE('',(#27),#253,.T.);
#270=ADVANCED_FACE('',(#28),#254,.T.);
#271=ADVANCED_FACE('',(#29),#255,.T.);
#272=ADVANCED_FACE('',(#30),#256,.T.);
#273=ADVANCED_FACE('',(#31),#257,.T.);
#274=ADVANCED_FACE('',(#32),#258,.T.);
#275=ADVANCED_FACE('',(#33),#259,.T.);
#276=ADVANCED_FACE('',(#34),#260,.T.);
#277=ADVANCED_FACE('',(#35),#261,.F.);
#278=ADVANCED_FACE('',(#36,#17,#18),#262,.F.);
#279=ADVANCED_FACE('',(#37),#15,.T.);
#280=ADVANCED_FACE('',(#38),#14,.T.);
#281=ADVANCED_FACE('',(#39),#16,.T.);
#282=ADVANCED_FACE('',(#40),#263,.T.);
#283=CLOSED_SHELL('',(#267,#268,#269,#270,#271,#272,#273,#274,#275,#276,
#277,#278,#279,#280,#281,#282));
#284=DERIVED_UNIT_ELEMENT(#286,1.);
#285=DERIVED_UNIT_ELEMENT(#477,-3.);
#286=(
MASS_UNIT()
NAMED_UNIT(*)
SI_UNIT(.KILO.,.GRAM.)
);
#287=DERIVED_UNIT((#284,#285));
#288=MEASURE_REPRESENTATION_ITEM('density measure',
POSITIVE_RATIO_MEASURE(7850.),#287);
#289=PROPERTY_DEFINITION_REPRESENTATION(#294,#291);
#290=PROPERTY_DEFINITION_REPRESENTATION(#295,#292);
#291=REPRESENTATION('material name',(#293),#474);
#292=REPRESENTATION('density',(#288),#474);
#293=DESCRIPTIVE_REPRESENTATION_ITEM('Acero','Acero');
#294=PROPERTY_DEFINITION('material property','material name',#484);
#295=PROPERTY_DEFINITION('material property','density of part',#484);
#296=AXIS2_PLACEMENT_3D('',#395,#319,#320);
#297=AXIS2_PLACEMENT_3D('',#396,#321,#322);
#298=AXIS2_PLACEMENT_3D('',#405,#327,#328);
#299=AXIS2_PLACEMENT_3D('',#411,#332,#333);
#300=AXIS2_PLACEMENT_3D('',#417,#337,#338);
#301=AXIS2_PLACEMENT_3D('',#420,#341,#342);
#302=AXIS2_PLACEMENT_3D('',#421,#343,#344);
#303=AXIS2_PLACEMENT_3D('',#430,#349,#350);
#304=AXIS2_PLACEMENT_3D('',#436,#354,#355);
#305=AXIS2_PLACEMENT_3D('',#442,#359,#360);
#306=AXIS2_PLACEMENT_3D('',#445,#363,#364);
#307=AXIS2_PLACEMENT_3D('',#446,#365,#366);
#308=AXIS2_PLACEMENT_3D('',#457,#372,#373);
#309=AXIS2_PLACEMENT_3D('',#458,#374,#375);
#310=AXIS2_PLACEMENT_3D('',#459,#376,#377);
#311=AXIS2_PLACEMENT_3D('',#460,#378,#379);
#312=AXIS2_PLACEMENT_3D('',#461,#380,#381);
#313=AXIS2_PLACEMENT_3D('',#464,#382,#383);
#314=AXIS2_PLACEMENT_3D('',#466,#384,#385);
#315=AXIS2_PLACEMENT_3D('',#467,#386,#387);
#316=AXIS2_PLACEMENT_3D('',#468,#388,#389);
#317=AXIS2_PLACEMENT_3D('',#470,#391,#392);
#318=AXIS2_PLACEMENT_3D('',#471,#393,#394);
#319=DIRECTION('axis',(0.,0.,1.));
#320=DIRECTION('refdir',(1.,0.,0.));
#321=DIRECTION('center_axis',(0.,-1.,0.));
#322=DIRECTION('ref_axis',(-1.,0.,0.));
#323=DIRECTION('',(1.,0.,0.));
#324=DIRECTION('',(0.,0.,-1.));
#325=DIRECTION('',(-1.,0.,0.));
#326=DIRECTION('',(0.,0.,-1.));
#327=DIRECTION('center_axis',(1.,0.,0.));
#328=DIRECTION('ref_axis',(0.,-1.,0.));
#329=DIRECTION('',(0.,1.,0.));
#330=DIRECTION('',(0.,-1.,0.));
#331=DIRECTION('',(0.,0.,-1.));
#332=DIRECTION('center_axis',(0.,1.,0.));
#333=DIRECTION('ref_axis',(1.,0.,0.));
#334=DIRECTION('',(-1.,0.,0.));
#335=DIRECTION('',(1.,0.,0.));
#336=DIRECTION('',(0.,0.,-1.));
#337=DIRECTION('center_axis',(-1.,0.,0.));
#338=DIRECTION('ref_axis',(0.,1.,0.));
#339=DIRECTION('',(0.,-1.,0.));
#340=DIRECTION('',(0.,1.,0.));
#341=DIRECTION('center_axis',(0.,0.,-1.));
#342=DIRECTION('ref_axis',(-1.,0.,0.));
#343=DIRECTION('center_axis',(0.,1.,0.));
#344=DIRECTION('ref_axis',(1.,0.,0.));
#345=DIRECTION('',(-1.,0.,0.));
#346=DIRECTION('',(0.,0.,-1.));
#347=DIRECTION('',(1.,0.,0.));
#348=DIRECTION('',(0.,0.,-1.));
#349=DIRECTION('center_axis',(-1.,0.,0.));
#350=DIRECTION('ref_axis',(0.,1.,0.));
#351=DIRECTION('',(0.,-1.,0.));
#352=DIRECTION('',(0.,1.,0.));
#353=DIRECTION('',(0.,0.,-1.));
#354=DIRECTION('center_axis',(0.,-1.,0.));
#355=DIRECTION('ref_axis',(-1.,0.,0.));
#356=DIRECTION('',(1.,0.,0.));
#357=DIRECTION('',(-1.,0.,0.));
#358=DIRECTION('',(0.,0.,-1.));
#359=DIRECTION('center_axis',(1.,0.,0.));
#360=DIRECTION('ref_axis',(0.,-1.,0.));
#361=DIRECTION('',(0.,1.,0.));
#362=DIRECTION('',(0.,-1.,0.));
#363=DIRECTION('center_axis',(0.,0.,-1.));
#364=DIRECTION('ref_axis',(-1.,0.,0.));
#365=DIRECTION('center_axis',(-1.,0.,0.));
#366=DIRECTION('ref_axis',(0.,-1.,0.));
#367=DIRECTION('',(0.,0.,-1.));
#368=DIRECTION('',(0.,1.,0.));
#369=DIRECTION('',(0.,1.,0.));
#370=DIRECTION('',(0.,0.,1.));
#371=DIRECTION('',(0.,-1.,0.));
#372=DIRECTION('center_axis',(0.,0.,1.));
#373=DIRECTION('ref_axis',(1.,0.,0.));
#374=DIRECTION('center_axis',(0.,0.,1.));
#375=DIRECTION('ref_axis',(1.,0.,0.));
#376=DIRECTION('center_axis',(0.,0.,1.));
#377=DIRECTION('ref_axis',(-1.,1.22464679914735E-16,0.));
#378=DIRECTION('center_axis',(0.,0.,1.));
#379=DIRECTION('ref_axis',(1.,0.,0.));
#380=DIRECTION('center_axis',(6.12323399573677E-17,0.,1.));
#381=DIRECTION('ref_axis',(1.,0.,0.));
#382=DIRECTION('center_axis',(0.,0.,1.));
#383=DIRECTION('ref_axis',(-1.,0.,0.));
#384=DIRECTION('center_axis',(1.22464679914735E-16,-1.,0.));
#385=DIRECTION('ref_axis',(-1.,-1.22464679914735E-16,0.));
#386=DIRECTION('center_axis',(0.,0.,1.));
#387=DIRECTION('ref_axis',(-1.,0.,0.));
#388=DIRECTION('center_axis',(0.,0.,1.));
#389=DIRECTION('ref_axis',(-1.,0.,0.));
#390=DIRECTION('',(0.,0.,-1.));
#391=DIRECTION('center_axis',(0.,0.,-1.));
#392=DIRECTION('ref_axis',(-1.,0.,0.));
#393=DIRECTION('center_axis',(0.,0.,1.));
#394=DIRECTION('ref_axis',(1.,0.,0.));
#395=CARTESIAN_POINT('',(0.,0.,0.));
#396=CARTESIAN_POINT('Origin',(1.25,-0.25,0.));
#397=CARTESIAN_POINT('',(0.75,-0.25,0.));
#398=CARTESIAN_POINT('',(1.25,-0.25,0.));
#399=CARTESIAN_POINT('',(0.625,-0.25,0.));
#400=CARTESIAN_POINT('',(0.75,-0.25,-20.));
#401=CARTESIAN_POINT('',(0.75,-0.25,0.));
#402=CARTESIAN_POINT('',(1.25,-0.25,-20.));
#403=CARTESIAN_POINT('',(1.25,-0.25,-20.));
#404=CARTESIAN_POINT('',(1.25,-0.25,0.));
#405=CARTESIAN_POINT('Origin',(1.25,0.25,0.));
#406=CARTESIAN_POINT('',(1.25,0.25,0.));
#407=CARTESIAN_POINT('',(1.25,0.125,0.));
#408=CARTESIAN_POINT('',(1.25,0.25,-20.));
#409=CARTESIAN_POINT('',(1.25,0.25,-20.));
#410=CARTESIAN_POINT('',(1.25,0.25,0.));
#411=CARTESIAN_POINT('Origin',(0.75,0.25,0.));
#412=CARTESIAN_POINT('',(0.75,0.25,0.));
#413=CARTESIAN_POINT('',(0.375,0.25,0.));
#414=CARTESIAN_POINT('',(0.75,0.25,-20.));
#415=CARTESIAN_POINT('',(0.75,0.25,-20.));
#416=CARTESIAN_POINT('',(0.75,0.25,0.));
#417=CARTESIAN_POINT('Origin',(0.75,-0.25,0.));
#418=CARTESIAN_POINT('',(0.75,-0.125,0.));
#419=CARTESIAN_POINT('',(0.75,-0.25,-20.));
#420=CARTESIAN_POINT('Origin',(1.,0.,-20.));
#421=CARTESIAN_POINT('Origin',(-1.25,0.25,0.));
#422=CARTESIAN_POINT('',(-0.75,0.25,0.));
#423=CARTESIAN_POINT('',(-1.25,0.25,0.));
#424=CARTESIAN_POINT('',(-0.625,0.25,0.));
#425=CARTESIAN_POINT('',(-0.75,0.25,-18.));
#426=CARTESIAN_POINT('',(-0.75,0.25,0.));
#427=CARTESIAN_POINT('',(-1.25,0.25,-18.));
#428=CARTESIAN_POINT('',(-1.25,0.25,-18.));
#429=CARTESIAN_POINT('',(-1.25,0.25,0.));
#430=CARTESIAN_POINT('Origin',(-1.25,-0.25,0.));
#431=CARTESIAN_POINT('',(-1.25,-0.25,0.));
#432=CARTESIAN_POINT('',(-1.25,-0.125,0.));
#433=CARTESIAN_POINT('',(-1.25,-0.25,-18.));
#434=CARTESIAN_POINT('',(-1.25,-0.25,-18.));
#435=CARTESIAN_POINT('',(-1.25,-0.25,0.));
#436=CARTESIAN_POINT('Origin',(-0.75,-0.25,0.));
#437=CARTESIAN_POINT('',(-0.75,-0.25,0.));
#438=CARTESIAN_POINT('',(-0.375,-0.25,0.));
#439=CARTESIAN_POINT('',(-0.75,-0.25,-18.));
#440=CARTESIAN_POINT('',(-0.75,-0.25,-18.));
#441=CARTESIAN_POINT('',(-0.75,-0.25,0.));
#442=CARTESIAN_POINT('Origin',(-0.75,0.25,0.));
#443=CARTESIAN_POINT('',(-0.75,0.125,0.));
#444=CARTESIAN_POINT('',(-0.75,0.25,-18.));
#445=CARTESIAN_POINT('Origin',(-1.,0.,-18.));
#446=CARTESIAN_POINT('Origin',(1.50000002235174,2.5000000372529,0.));
#447=CARTESIAN_POINT('',(1.50000002235174,1.24599355252938,0.8));
#448=CARTESIAN_POINT('',(1.50000002235174,1.24599355252938,0.));
#449=CARTESIAN_POINT('',(1.50000002235174,1.24599355252938,0.));
#450=CARTESIAN_POINT('',(1.5,1.83697019872103E-16,0.8));
#451=CARTESIAN_POINT('',(1.50000002235174,1.25000001862645,0.8));
#452=CARTESIAN_POINT('',(1.50000002235174,-1.24599355252938,0.8));
#453=CARTESIAN_POINT('',(1.50000002235174,1.25000001862645,0.8));
#454=CARTESIAN_POINT('',(1.50000002235174,-1.24599355252938,0.));
#455=CARTESIAN_POINT('',(1.50000002235174,-1.24599355252938,0.));
#456=CARTESIAN_POINT('',(1.50000002235174,1.25000001862645,0.));
#457=CARTESIAN_POINT('Origin',(0.,0.,0.));
#458=CARTESIAN_POINT('Origin',(0.,0.,0.));
#459=CARTESIAN_POINT('Origin',(0.,0.,0.));
#460=CARTESIAN_POINT('Origin',(0.,0.,0.8));
#461=CARTESIAN_POINT('Origin',(0.,0.,3.8));
#462=CARTESIAN_POINT('',(1.5,1.83697019872103E-16,3.8));
#463=CARTESIAN_POINT('',(-1.5,-1.83697019872103E-16,3.8));
#464=CARTESIAN_POINT('Origin',(0.,0.,3.8));
#465=CARTESIAN_POINT('',(-9.18485099360515E-17,-1.12481983699639E-32,5.3));
#466=CARTESIAN_POINT('Origin',(0.,0.,3.8));
#467=CARTESIAN_POINT('Origin',(0.,0.,3.8));
#468=CARTESIAN_POINT('Origin',(0.,0.,0.8));
#469=CARTESIAN_POINT('',(1.5,1.83697019872103E-16,0.8));
#470=CARTESIAN_POINT('Origin',(0.,0.,0.8));
#471=CARTESIAN_POINT('Origin',(0.,0.,0.8));
#472=UNCERTAINTY_MEASURE_WITH_UNIT(LENGTH_MEASURE(0.01),#476,
'DISTANCE_ACCURACY_VALUE',
'Maximum model space distance between geometric entities at asserted c
onnectivities');
#473=UNCERTAINTY_MEASURE_WITH_UNIT(LENGTH_MEASURE(0.01),#476,
'DISTANCE_ACCURACY_VALUE',
'Maximum model space distance between geometric entities at asserted c
onnectivities');
#474=(
GEOMETRIC_REPRESENTATION_CONTEXT(3)
GLOBAL_UNCERTAINTY_ASSIGNED_CONTEXT((#472))
GLOBAL_UNIT_ASSIGNED_CONTEXT((#476,#478,#479))
REPRESENTATION_CONTEXT('','3D')
);
#475=(
GEOMETRIC_REPRESENTATION_CONTEXT(3)
GLOBAL_UNCERTAINTY_ASSIGNED_CONTEXT((#473))
GLOBAL_UNIT_ASSIGNED_CONTEXT((#476,#478,#479))
REPRESENTATION_CONTEXT('','3D')
);
#476=(
LENGTH_UNIT()
NAMED_UNIT(*)
SI_UNIT(.MILLI.,.METRE.)
);
#477=(
LENGTH_UNIT()
NAMED_UNIT(*)
SI_UNIT($,.METRE.)
);
#478=(
NAMED_UNIT(*)
PLANE_ANGLE_UNIT()
SI_UNIT($,.RADIAN.)
);
#479=(
NAMED_UNIT(*)
SI_UNIT($,.STERADIAN.)
SOLID_ANGLE_UNIT()
);
#480=SHAPE_DEFINITION_REPRESENTATION(#481,#482);
#481=PRODUCT_DEFINITION_SHAPE('',$,#484);
#482=SHAPE_REPRESENTATION('',(#296),#474);
#483=PRODUCT_DEFINITION_CONTEXT('part definition',#488,'design');
#484=PRODUCT_DEFINITION('led 3 mm','led 3 mm v1',#485,#483);
#485=PRODUCT_DEFINITION_FORMATION('',$,#490);
#486=PRODUCT_RELATED_PRODUCT_CATEGORY('led 3 mm v1','led 3 mm v1',(#490));
#487=APPLICATION_PROTOCOL_DEFINITION('international standard',
'automotive_design',2009,#488);
#488=APPLICATION_CONTEXT(
'Core Data for Automotive Mechanical Design Process');
#489=PRODUCT_CONTEXT('part definition',#488,'mechanical');
#490=PRODUCT('led 3 mm','led 3 mm v1',$,(#489));
#491=PRESENTATION_STYLE_ASSIGNMENT((#493));
#492=PRESENTATION_STYLE_ASSIGNMENT((#494));
#493=SURFACE_STYLE_USAGE(.BOTH.,#495);
#494=SURFACE_STYLE_USAGE(.BOTH.,#496);
#495=SURFACE_SIDE_STYLE('',(#497));
#496=SURFACE_SIDE_STYLE('',(#498));
#497=SURFACE_STYLE_FILL_AREA(#499);
#498=SURFACE_STYLE_FILL_AREA(#500);
#499=FILL_AREA_STYLE('Acero - Satinado',(#501));
#500=FILL_AREA_STYLE('Pl\X\E1stico - Mate transl\X\FAcido (amarillo)',(#502));
#501=FILL_AREA_STYLE_COLOUR('Acero - Satinado',#503);
#502=FILL_AREA_STYLE_COLOUR('Pl\X\E1stico - Mate transl\X\FAcido (amar
illo)',#504);
#503=COLOUR_RGB('Acero - Satinado',0.627450980392157,0.627450980392157,
0.627450980392157);
#504=COLOUR_RGB('Pl\X\E1stico - Mate transl\X\FAcido (amarillo)',0.909803921568627,
0.67843137254902,0.137254901960784);
ENDSEC;
END-ISO-10303-21;
