ISO-10303-21;
HEADER;
/* Generated by software containing ST-Developer
 * from STEP Tools, Inc. (www.steptools.com) 
 */

FILE_DESCRIPTION(
/* description */ (''),
/* implementation_level */ '2;1');

FILE_NAME(
/* name */ 'OscarML_Led 3mm Verde.step',
/* time_stamp */ '2023-10-05T21:17:50-06:00',
/* author */ (''),
/* organization */ (''),
/* preprocessor_version */ 'ST-DEVELOPER v20',
/* originating_system */ 'Autodesk Translation Framework v12.14.0.127',

/* authorisation */ '');

FILE_SCHEMA (('AUTOMOTIVE_DESIGN { 1 0 10303 214 3 1 1 }'));
ENDSEC;

DATA;
#10=MECHANICAL_DESIGN_GEOMETRIC_PRESENTATION_REPRESENTATION('',(#26,#27,
#28,#29,#30,#31,#32,#33,#34,#35,#36,#37,#38,#39,#40),#497);
#11=SHAPE_REPRESENTATION_RELATIONSHIP('SRR','None',#504,#12);
#12=ADVANCED_BREP_SHAPE_REPRESENTATION('',(#13),#496);
#13=MANIFOLD_SOLID_BREP('Cuerpo1',#300);
#14=FACE_BOUND('',#73,.T.);
#15=FACE_BOUND('',#74,.T.);
#16=CYLINDRICAL_SURFACE('',#333,1.5);
#17=CYLINDRICAL_SURFACE('',#334,1.95);
#18=SPHERICAL_SURFACE('',#329,1.5);
#19=CIRCLE('',#326,1.5);
#20=CIRCLE('',#327,1.5);
#21=CIRCLE('',#328,1.95);
#22=CIRCLE('',#330,1.5);
#23=CIRCLE('',#331,1.5);
#24=CIRCLE('',#332,1.5);
#25=CIRCLE('',#335,1.95);
#26=STYLED_ITEM('',(#514),#285);
#27=STYLED_ITEM('',(#514),#286);
#28=STYLED_ITEM('',(#514),#287);
#29=STYLED_ITEM('',(#514),#288);
#30=STYLED_ITEM('',(#514),#290);
#31=STYLED_ITEM('',(#514),#291);
#32=STYLED_ITEM('',(#514),#292);
#33=STYLED_ITEM('',(#514),#293);
#34=STYLED_ITEM('',(#515),#294);
#35=STYLED_ITEM('',(#515),#295);
#36=STYLED_ITEM('',(#515),#296);
#37=STYLED_ITEM('',(#515),#297);
#38=STYLED_ITEM('',(#515),#298);
#39=STYLED_ITEM('',(#515),#299);
#40=STYLED_ITEM('',(#513),#13);
#41=FACE_OUTER_BOUND('',#57,.T.);
#42=FACE_OUTER_BOUND('',#58,.T.);
#43=FACE_OUTER_BOUND('',#59,.T.);
#44=FACE_OUTER_BOUND('',#60,.T.);
#45=FACE_OUTER_BOUND('',#61,.T.);
#46=FACE_OUTER_BOUND('',#62,.T.);
#47=FACE_OUTER_BOUND('',#63,.T.);
#48=FACE_OUTER_BOUND('',#64,.T.);
#49=FACE_OUTER_BOUND('',#65,.T.);
#50=FACE_OUTER_BOUND('',#66,.T.);
#51=FACE_OUTER_BOUND('',#67,.T.);
#52=FACE_OUTER_BOUND('',#68,.T.);
#53=FACE_OUTER_BOUND('',#69,.T.);
#54=FACE_OUTER_BOUND('',#70,.T.);
#55=FACE_OUTER_BOUND('',#71,.T.);
#56=FACE_OUTER_BOUND('',#72,.T.);
#57=EDGE_LOOP('',(#197,#198,#199,#200));
#58=EDGE_LOOP('',(#201,#202,#203,#204));
#59=EDGE_LOOP('',(#205,#206,#207,#208));
#60=EDGE_LOOP('',(#209,#210,#211,#212));
#61=EDGE_LOOP('',(#213,#214,#215,#216));
#62=EDGE_LOOP('',(#217,#218,#219,#220));
#63=EDGE_LOOP('',(#221,#222,#223,#224));
#64=EDGE_LOOP('',(#225,#226,#227,#228));
#65=EDGE_LOOP('',(#229,#230,#231,#232));
#66=EDGE_LOOP('',(#233,#234,#235,#236));
#67=EDGE_LOOP('',(#237,#238,#239,#240,#241));
#68=EDGE_LOOP('',(#242,#243,#244,#245,#246));
#69=EDGE_LOOP('',(#247,#248,#249,#250));
#70=EDGE_LOOP('',(#251,#252,#253,#254,#255,#256));
#71=EDGE_LOOP('',(#257,#258,#259,#260));
#72=EDGE_LOOP('',(#261,#262));
#73=EDGE_LOOP('',(#263,#264,#265,#266));
#74=EDGE_LOOP('',(#267,#268,#269,#270));
#75=LINE('',#419,#105);
#76=LINE('',#421,#106);
#77=LINE('',#423,#107);
#78=LINE('',#424,#108);
#79=LINE('',#428,#109);
#80=LINE('',#430,#110);
#81=LINE('',#432,#111);
#82=LINE('',#433,#112);
#83=LINE('',#436,#113);
#84=LINE('',#438,#114);
#85=LINE('',#439,#115);
#86=LINE('',#442,#116);
#87=LINE('',#444,#117);
#88=LINE('',#445,#118);
#89=LINE('',#447,#119);
#90=LINE('',#448,#120);
#91=LINE('',#453,#121);
#92=LINE('',#454,#122);
#93=LINE('',#455,#123);
#94=LINE('',#458,#124);
#95=LINE('',#459,#125);
#96=LINE('',#462,#126);
#97=LINE('',#463,#127);
#98=LINE('',#465,#128);
#99=LINE('',#469,#129);
#100=LINE('',#471,#130);
#101=LINE('',#473,#131);
#102=LINE('',#475,#132);
#103=LINE('',#476,#133);
#104=LINE('',#490,#134);
#105=VECTOR('',#341,10.);
#106=VECTOR('',#342,10.);
#107=VECTOR('',#343,10.);
#108=VECTOR('',#344,10.);
#109=VECTOR('',#347,10.);
#110=VECTOR('',#348,10.);
#111=VECTOR('',#349,10.);
#112=VECTOR('',#350,10.);
#113=VECTOR('',#353,10.);
#114=VECTOR('',#354,10.);
#115=VECTOR('',#355,10.);
#116=VECTOR('',#358,10.);
#117=VECTOR('',#359,10.);
#118=VECTOR('',#360,10.);
#119=VECTOR('',#363,10.);
#120=VECTOR('',#364,10.);
#121=VECTOR('',#369,10.);
#122=VECTOR('',#370,10.);
#123=VECTOR('',#371,10.);
#124=VECTOR('',#374,10.);
#125=VECTOR('',#375,10.);
#126=VECTOR('',#378,10.);
#127=VECTOR('',#379,10.);
#128=VECTOR('',#382,10.);
#129=VECTOR('',#385,10.);
#130=VECTOR('',#386,10.);
#131=VECTOR('',#387,10.);
#132=VECTOR('',#388,10.);
#133=VECTOR('',#389,10.);
#134=VECTOR('',#408,1.5);
#135=VERTEX_POINT('',#417);
#136=VERTEX_POINT('',#418);
#137=VERTEX_POINT('',#420);
#138=VERTEX_POINT('',#422);
#139=VERTEX_POINT('',#426);
#140=VERTEX_POINT('',#427);
#141=VERTEX_POINT('',#429);
#142=VERTEX_POINT('',#431);
#143=VERTEX_POINT('',#435);
#144=VERTEX_POINT('',#437);
#145=VERTEX_POINT('',#441);
#146=VERTEX_POINT('',#443);
#147=VERTEX_POINT('',#451);
#148=VERTEX_POINT('',#452);
#149=VERTEX_POINT('',#457);
#150=VERTEX_POINT('',#461);
#151=VERTEX_POINT('',#467);
#152=VERTEX_POINT('',#468);
#153=VERTEX_POINT('',#470);
#154=VERTEX_POINT('',#472);
#155=VERTEX_POINT('',#474);
#156=VERTEX_POINT('',#478);
#157=VERTEX_POINT('',#483);
#158=VERTEX_POINT('',#484);
#159=VERTEX_POINT('',#486);
#160=EDGE_CURVE('',#135,#136,#75,.T.);
#161=EDGE_CURVE('',#136,#137,#76,.T.);
#162=EDGE_CURVE('',#137,#138,#77,.T.);
#163=EDGE_CURVE('',#138,#135,#78,.T.);
#164=EDGE_CURVE('',#139,#140,#79,.T.);
#165=EDGE_CURVE('',#139,#141,#80,.T.);
#166=EDGE_CURVE('',#142,#141,#81,.T.);
#167=EDGE_CURVE('',#140,#142,#82,.T.);
#168=EDGE_CURVE('',#140,#143,#83,.T.);
#169=EDGE_CURVE('',#144,#142,#84,.T.);
#170=EDGE_CURVE('',#143,#144,#85,.T.);
#171=EDGE_CURVE('',#143,#145,#86,.T.);
#172=EDGE_CURVE('',#146,#144,#87,.T.);
#173=EDGE_CURVE('',#145,#146,#88,.T.);
#174=EDGE_CURVE('',#145,#139,#89,.T.);
#175=EDGE_CURVE('',#141,#146,#90,.T.);
#176=EDGE_CURVE('',#147,#148,#91,.T.);
#177=EDGE_CURVE('',#147,#135,#92,.T.);
#178=EDGE_CURVE('',#148,#138,#93,.T.);
#179=EDGE_CURVE('',#148,#149,#94,.T.);
#180=EDGE_CURVE('',#149,#137,#95,.T.);
#181=EDGE_CURVE('',#149,#150,#96,.T.);
#182=EDGE_CURVE('',#150,#136,#97,.T.);
#183=EDGE_CURVE('',#150,#147,#98,.T.);
#184=EDGE_CURVE('',#151,#152,#99,.T.);
#185=EDGE_CURVE('',#153,#151,#100,.T.);
#186=EDGE_CURVE('',#154,#153,#101,.T.);
#187=EDGE_CURVE('',#155,#154,#102,.T.);
#188=EDGE_CURVE('',#152,#155,#103,.T.);
#189=EDGE_CURVE('',#155,#156,#19,.T.);
#190=EDGE_CURVE('',#156,#155,#20,.T.);
#191=EDGE_CURVE('',#152,#154,#21,.T.);
#192=EDGE_CURVE('',#157,#158,#22,.T.);
#193=EDGE_CURVE('',#158,#159,#23,.T.);
#194=EDGE_CURVE('',#158,#157,#24,.T.);
#195=EDGE_CURVE('',#157,#156,#104,.T.);
#196=EDGE_CURVE('',#151,#153,#25,.T.);
#197=ORIENTED_EDGE('',*,*,#160,.T.);
#198=ORIENTED_EDGE('',*,*,#161,.T.);
#199=ORIENTED_EDGE('',*,*,#162,.T.);
#200=ORIENTED_EDGE('',*,*,#163,.T.);
#201=ORIENTED_EDGE('',*,*,#164,.F.);
#202=ORIENTED_EDGE('',*,*,#165,.T.);
#203=ORIENTED_EDGE('',*,*,#166,.F.);
#204=ORIENTED_EDGE('',*,*,#167,.F.);
#205=ORIENTED_EDGE('',*,*,#168,.F.);
#206=ORIENTED_EDGE('',*,*,#167,.T.);
#207=ORIENTED_EDGE('',*,*,#169,.F.);
#208=ORIENTED_EDGE('',*,*,#170,.F.);
#209=ORIENTED_EDGE('',*,*,#171,.F.);
#210=ORIENTED_EDGE('',*,*,#170,.T.);
#211=ORIENTED_EDGE('',*,*,#172,.F.);
#212=ORIENTED_EDGE('',*,*,#173,.F.);
#213=ORIENTED_EDGE('',*,*,#174,.F.);
#214=ORIENTED_EDGE('',*,*,#173,.T.);
#215=ORIENTED_EDGE('',*,*,#175,.F.);
#216=ORIENTED_EDGE('',*,*,#165,.F.);
#217=ORIENTED_EDGE('',*,*,#175,.T.);
#218=ORIENTED_EDGE('',*,*,#172,.T.);
#219=ORIENTED_EDGE('',*,*,#169,.T.);
#220=ORIENTED_EDGE('',*,*,#166,.T.);
#221=ORIENTED_EDGE('',*,*,#176,.F.);
#222=ORIENTED_EDGE('',*,*,#177,.T.);
#223=ORIENTED_EDGE('',*,*,#163,.F.);
#224=ORIENTED_EDGE('',*,*,#178,.F.);
#225=ORIENTED_EDGE('',*,*,#179,.F.);
#226=ORIENTED_EDGE('',*,*,#178,.T.);
#227=ORIENTED_EDGE('',*,*,#162,.F.);
#228=ORIENTED_EDGE('',*,*,#180,.F.);
#229=ORIENTED_EDGE('',*,*,#181,.F.);
#230=ORIENTED_EDGE('',*,*,#180,.T.);
#231=ORIENTED_EDGE('',*,*,#161,.F.);
#232=ORIENTED_EDGE('',*,*,#182,.F.);
#233=ORIENTED_EDGE('',*,*,#183,.F.);
#234=ORIENTED_EDGE('',*,*,#182,.T.);
#235=ORIENTED_EDGE('',*,*,#160,.F.);
#236=ORIENTED_EDGE('',*,*,#177,.F.);
#237=ORIENTED_EDGE('',*,*,#184,.F.);
#238=ORIENTED_EDGE('',*,*,#185,.F.);
#239=ORIENTED_EDGE('',*,*,#186,.F.);
#240=ORIENTED_EDGE('',*,*,#187,.F.);
#241=ORIENTED_EDGE('',*,*,#188,.F.);
#242=ORIENTED_EDGE('',*,*,#188,.T.);
#243=ORIENTED_EDGE('',*,*,#189,.T.);
#244=ORIENTED_EDGE('',*,*,#190,.T.);
#245=ORIENTED_EDGE('',*,*,#187,.T.);
#246=ORIENTED_EDGE('',*,*,#191,.F.);
#247=ORIENTED_EDGE('',*,*,#192,.T.);
#248=ORIENTED_EDGE('',*,*,#193,.T.);
#249=ORIENTED_EDGE('',*,*,#193,.F.);
#250=ORIENTED_EDGE('',*,*,#194,.T.);
#251=ORIENTED_EDGE('',*,*,#192,.F.);
#252=ORIENTED_EDGE('',*,*,#195,.T.);
#253=ORIENTED_EDGE('',*,*,#189,.F.);
#254=ORIENTED_EDGE('',*,*,#190,.F.);
#255=ORIENTED_EDGE('',*,*,#195,.F.);
#256=ORIENTED_EDGE('',*,*,#194,.F.);
#257=ORIENTED_EDGE('',*,*,#184,.T.);
#258=ORIENTED_EDGE('',*,*,#191,.T.);
#259=ORIENTED_EDGE('',*,*,#186,.T.);
#260=ORIENTED_EDGE('',*,*,#196,.F.);
#261=ORIENTED_EDGE('',*,*,#185,.T.);
#262=ORIENTED_EDGE('',*,*,#196,.T.);
#263=ORIENTED_EDGE('',*,*,#164,.T.);
#264=ORIENTED_EDGE('',*,*,#168,.T.);
#265=ORIENTED_EDGE('',*,*,#171,.T.);
#266=ORIENTED_EDGE('',*,*,#174,.T.);
#267=ORIENTED_EDGE('',*,*,#176,.T.);
#268=ORIENTED_EDGE('',*,*,#179,.T.);
#269=ORIENTED_EDGE('',*,*,#181,.T.);
#270=ORIENTED_EDGE('',*,*,#183,.T.);
#271=PLANE('',#314);
#272=PLANE('',#315);
#273=PLANE('',#316);
#274=PLANE('',#317);
#275=PLANE('',#318);
#276=PLANE('',#319);
#277=PLANE('',#320);
#278=PLANE('',#321);
#279=PLANE('',#322);
#280=PLANE('',#323);
#281=PLANE('',#324);
#282=PLANE('',#325);
#283=PLANE('',#336);
#284=ADVANCED_FACE('',(#41),#271,.T.);
#285=ADVANCED_FACE('',(#42),#272,.T.);
#286=ADVANCED_FACE('',(#43),#273,.T.);
#287=ADVANCED_FACE('',(#44),#274,.T.);
#288=ADVANCED_FACE('',(#45),#275,.T.);
#289=ADVANCED_FACE('',(#46),#276,.T.);
#290=ADVANCED_FACE('',(#47),#277,.T.);
#291=ADVANCED_FACE('',(#48),#278,.T.);
#292=ADVANCED_FACE('',(#49),#279,.T.);
#293=ADVANCED_FACE('',(#50),#280,.T.);
#294=ADVANCED_FACE('',(#51),#281,.F.);
#295=ADVANCED_FACE('',(#52),#282,.F.);
#296=ADVANCED_FACE('',(#53),#18,.T.);
#297=ADVANCED_FACE('',(#54),#16,.T.);
#298=ADVANCED_FACE('',(#55),#17,.T.);
#299=ADVANCED_FACE('',(#56,#14,#15),#283,.T.);
#300=CLOSED_SHELL('',(#284,#285,#286,#287,#288,#289,#290,#291,#292,#293,
#294,#295,#296,#297,#298,#299));
#301=DERIVED_UNIT_ELEMENT(#303,1.);
#302=DERIVED_UNIT_ELEMENT(#499,-3.);
#303=(
MASS_UNIT()
NAMED_UNIT(*)
SI_UNIT(.KILO.,.GRAM.)
);
#304=DERIVED_UNIT((#301,#302));
#305=MEASURE_REPRESENTATION_ITEM('density measure',
POSITIVE_RATIO_MEASURE(7850.),#304);
#306=PROPERTY_DEFINITION_REPRESENTATION(#311,#308);
#307=PROPERTY_DEFINITION_REPRESENTATION(#312,#309);
#308=REPRESENTATION('material name',(#310),#496);
#309=REPRESENTATION('density',(#305),#496);
#310=DESCRIPTIVE_REPRESENTATION_ITEM('Acero','Acero');
#311=PROPERTY_DEFINITION('material property','material name',#506);
#312=PROPERTY_DEFINITION('material property','density of part',#506);
#313=AXIS2_PLACEMENT_3D('',#415,#337,#338);
#314=AXIS2_PLACEMENT_3D('',#416,#339,#340);
#315=AXIS2_PLACEMENT_3D('',#425,#345,#346);
#316=AXIS2_PLACEMENT_3D('',#434,#351,#352);
#317=AXIS2_PLACEMENT_3D('',#440,#356,#357);
#318=AXIS2_PLACEMENT_3D('',#446,#361,#362);
#319=AXIS2_PLACEMENT_3D('',#449,#365,#366);
#320=AXIS2_PLACEMENT_3D('',#450,#367,#368);
#321=AXIS2_PLACEMENT_3D('',#456,#372,#373);
#322=AXIS2_PLACEMENT_3D('',#460,#376,#377);
#323=AXIS2_PLACEMENT_3D('',#464,#380,#381);
#324=AXIS2_PLACEMENT_3D('',#466,#383,#384);
#325=AXIS2_PLACEMENT_3D('',#477,#390,#391);
#326=AXIS2_PLACEMENT_3D('',#479,#392,#393);
#327=AXIS2_PLACEMENT_3D('',#480,#394,#395);
#328=AXIS2_PLACEMENT_3D('',#481,#396,#397);
#329=AXIS2_PLACEMENT_3D('',#482,#398,#399);
#330=AXIS2_PLACEMENT_3D('',#485,#400,#401);
#331=AXIS2_PLACEMENT_3D('',#487,#402,#403);
#332=AXIS2_PLACEMENT_3D('',#488,#404,#405);
#333=AXIS2_PLACEMENT_3D('',#489,#406,#407);
#334=AXIS2_PLACEMENT_3D('',#491,#409,#410);
#335=AXIS2_PLACEMENT_3D('',#492,#411,#412);
#336=AXIS2_PLACEMENT_3D('',#493,#413,#414);
#337=DIRECTION('axis',(0.,0.,1.));
#338=DIRECTION('refdir',(1.,0.,0.));
#339=DIRECTION('center_axis',(-6.12323399573677E-17,-2.22044604925031E-16,
-1.));
#340=DIRECTION('ref_axis',(0.0871557427476582,-0.996194698091746,2.15862908097031E-16));
#341=DIRECTION('',(0.0871557427476582,-0.996194698091746,2.15862908097031E-16));
#342=DIRECTION('',(-0.996194698091746,-0.0871557427476582,8.03517948826324E-17));
#343=DIRECTION('',(-0.0871557427476582,0.996194698091746,-2.15862908097031E-16));
#344=DIRECTION('',(0.996194698091746,0.0871557427476582,-8.03517948826324E-17));
#345=DIRECTION('center_axis',(-0.0871557427476582,0.996194698091746,-2.15862908097031E-16));
#346=DIRECTION('ref_axis',(0.996194698091746,0.0871557427476582,-8.03517948826324E-17));
#347=DIRECTION('',(-0.996194698091746,-0.0871557427476582,8.03517948826324E-17));
#348=DIRECTION('',(-6.12323399573677E-17,-2.22044604925031E-16,-1.));
#349=DIRECTION('',(0.996194698091746,0.0871557427476582,-8.03517948826324E-17));
#350=DIRECTION('',(-6.12323399573677E-17,-2.22044604925031E-16,-1.));
#351=DIRECTION('center_axis',(-0.996194698091746,-0.0871557427476582,8.03517948826324E-17));
#352=DIRECTION('ref_axis',(-0.0871557427476582,0.996194698091746,-2.15862908097031E-16));
#353=DIRECTION('',(0.0871557427476582,-0.996194698091746,2.15862908097031E-16));
#354=DIRECTION('',(-0.0871557427476582,0.996194698091746,-2.15862908097031E-16));
#355=DIRECTION('',(-6.12323399573677E-17,-2.22044604925031E-16,-1.));
#356=DIRECTION('center_axis',(0.0871557427476582,-0.996194698091746,2.15862908097031E-16));
#357=DIRECTION('ref_axis',(-0.996194698091746,-0.0871557427476582,8.03517948826324E-17));
#358=DIRECTION('',(0.996194698091746,0.0871557427476582,-8.03517948826324E-17));
#359=DIRECTION('',(-0.996194698091746,-0.0871557427476582,8.03517948826324E-17));
#360=DIRECTION('',(-6.12323399573677E-17,-2.22044604925031E-16,-1.));
#361=DIRECTION('center_axis',(0.996194698091746,0.0871557427476582,-8.03517948826324E-17));
#362=DIRECTION('ref_axis',(0.0871557427476582,-0.996194698091746,2.15862908097031E-16));
#363=DIRECTION('',(-0.0871557427476582,0.996194698091746,-2.15862908097031E-16));
#364=DIRECTION('',(0.0871557427476582,-0.996194698091746,2.15862908097031E-16));
#365=DIRECTION('center_axis',(-6.12323399573677E-17,-2.22044604925031E-16,
-1.));
#366=DIRECTION('ref_axis',(0.0871557427476582,-0.996194698091746,2.15862908097031E-16));
#367=DIRECTION('center_axis',(-0.0871557427476582,0.996194698091746,-2.15862908097031E-16));
#368=DIRECTION('ref_axis',(0.996194698091746,0.0871557427476582,-8.03517948826324E-17));
#369=DIRECTION('',(-0.996194698091746,-0.0871557427476582,8.03517948826324E-17));
#370=DIRECTION('',(-6.12323399573677E-17,-2.22044604925031E-16,-1.));
#371=DIRECTION('',(-6.12323399573677E-17,-2.22044604925031E-16,-1.));
#372=DIRECTION('center_axis',(-0.996194698091746,-0.0871557427476582,8.03517948826324E-17));
#373=DIRECTION('ref_axis',(-0.0871557427476582,0.996194698091746,-2.15862908097031E-16));
#374=DIRECTION('',(0.0871557427476582,-0.996194698091746,2.15862908097031E-16));
#375=DIRECTION('',(-6.12323399573677E-17,-2.22044604925031E-16,-1.));
#376=DIRECTION('center_axis',(0.0871557427476582,-0.996194698091746,2.15862908097031E-16));
#377=DIRECTION('ref_axis',(-0.996194698091746,-0.0871557427476582,8.03517948826324E-17));
#378=DIRECTION('',(0.996194698091746,0.0871557427476582,-8.03517948826324E-17));
#379=DIRECTION('',(-6.12323399573677E-17,-2.22044604925031E-16,-1.));
#380=DIRECTION('center_axis',(0.996194698091746,0.0871557427476582,-8.03517948826324E-17));
#381=DIRECTION('ref_axis',(0.0871557427476582,-0.996194698091746,2.15862908097031E-16));
#382=DIRECTION('',(-0.0871557427476582,0.996194698091746,-2.15862908097031E-16));
#383=DIRECTION('center_axis',(0.996194698091746,0.0871557427476582,-8.03517948826324E-17));
#384=DIRECTION('ref_axis',(-0.0871557427476582,0.996194698091746,-2.15862908097031E-16));
#385=DIRECTION('',(6.12323399573677E-17,2.22044604925031E-16,1.));
#386=DIRECTION('',(-0.0871557427476582,0.996194698091746,-2.15862908097031E-16));
#387=DIRECTION('',(-6.12323399573677E-17,-2.22044604925031E-16,-1.));
#388=DIRECTION('',(0.0871557427476582,-0.996194698091746,2.15862908097031E-16));
#389=DIRECTION('',(0.0871557427476582,-0.996194698091746,2.15862908097031E-16));
#390=DIRECTION('center_axis',(-6.12323399573677E-17,-2.22044604925031E-16,
-1.));
#391=DIRECTION('ref_axis',(-0.996194698091746,-0.0871557427476582,8.03517948826324E-17));
#392=DIRECTION('center_axis',(-6.12323399573677E-17,-2.22044604925031E-16,
-1.));
#393=DIRECTION('ref_axis',(-0.996194698091746,-0.0871557427476582,8.03517948826324E-17));
#394=DIRECTION('center_axis',(-6.12323399573677E-17,-2.22044604925031E-16,
-1.));
#395=DIRECTION('ref_axis',(-0.996194698091746,-0.0871557427476582,8.03517948826324E-17));
#396=DIRECTION('center_axis',(-6.12323399573677E-17,-2.22044604925031E-16,
-1.));
#397=DIRECTION('ref_axis',(-0.996194698091746,-0.0871557427476582,8.03517948826324E-17));
#398=DIRECTION('center_axis',(-7.40148683083438E-17,-1.48029736616688E-16,
-1.));
#399=DIRECTION('ref_axis',(-0.0871557427476582,0.996194698091746,0.));
#400=DIRECTION('center_axis',(6.12323399573677E-17,2.22044604925031E-16,
1.));
#401=DIRECTION('ref_axis',(-0.996194698091746,-0.0871557427476582,8.03517948826324E-17));
#402=DIRECTION('center_axis',(-0.996194698091746,-0.0871557427476581,8.03517948826324E-17));
#403=DIRECTION('ref_axis',(0.0871557427476581,-0.996194698091746,0.));
#404=DIRECTION('center_axis',(6.12323399573677E-17,2.22044604925031E-16,
1.));
#405=DIRECTION('ref_axis',(-0.996194698091746,-0.0871557427476582,8.03517948826324E-17));
#406=DIRECTION('center_axis',(6.12323399573677E-17,2.22044604925031E-16,
1.));
#407=DIRECTION('ref_axis',(-0.996194698091746,-0.0871557427476582,8.03517948826324E-17));
#408=DIRECTION('',(-6.12323399573677E-17,-2.22044604925031E-16,-1.));
#409=DIRECTION('center_axis',(-6.12323399573677E-17,-2.22044604925031E-16,
-1.));
#410=DIRECTION('ref_axis',(0.996194698091746,0.0871557427476583,-8.03517948826325E-17));
#411=DIRECTION('center_axis',(-6.12323399573677E-17,-2.22044604925031E-16,
-1.));
#412=DIRECTION('ref_axis',(-0.996194698091746,-0.0871557427476582,8.03517948826324E-17));
#413=DIRECTION('center_axis',(-6.12323399573677E-17,-2.22044604925031E-16,
-1.));
#414=DIRECTION('ref_axis',(-0.996194698091746,-0.0871557427476582,8.03517948826324E-17));
#415=CARTESIAN_POINT('',(0.,0.,0.));
#416=CARTESIAN_POINT('Origin',(0.926553246941107,-0.622329539966728,-1.51288932514003));
#417=CARTESIAN_POINT('',(1.15381298577713,-0.351491929756877,-1.51288932514003));
#418=CARTESIAN_POINT('',(1.19739085715096,-0.849589278802749,-1.51288932514003));
#419=CARTESIAN_POINT('',(1.15381298577713,-0.351491929756877,-1.51288932514003));
#420=CARTESIAN_POINT('',(0.699293508105086,-0.893167150176579,-1.51288932514003));
#421=CARTESIAN_POINT('',(1.19739085715096,-0.849589278802749,-1.51288932514003));
#422=CARTESIAN_POINT('',(0.655715636731256,-0.395069801130706,-1.51288932514003));
#423=CARTESIAN_POINT('',(0.699293508105086,-0.893167150176579,-1.51288932514003));
#424=CARTESIAN_POINT('',(0.655715636731256,-0.395069801130706,-1.51288932514003));
#425=CARTESIAN_POINT('Origin',(-1.83453283185908,-0.61560186988486,24.88711067486));
#426=CARTESIAN_POINT('',(-1.33643548281321,-0.572023998511031,24.88711067486));
#427=CARTESIAN_POINT('',(-1.83453283185908,-0.61560186988486,24.88711067486));
#428=CARTESIAN_POINT('',(-1.09252285160048,-0.550684408389137,24.88711067486));
#429=CARTESIAN_POINT('',(-1.33643548281321,-0.572023998511036,-0.512889325140025));
#430=CARTESIAN_POINT('',(-1.33643548281321,-0.572023998511031,24.88711067486));
#431=CARTESIAN_POINT('',(-1.83453283185908,-0.615601869884865,-0.512889325140025));
#432=CARTESIAN_POINT('',(-1.83453283185908,-0.615601869884865,-0.512889325140025));
#433=CARTESIAN_POINT('',(-1.83453283185908,-0.61560186988486,24.88711067486));
#434=CARTESIAN_POINT('Origin',(-1.79095496048525,-1.11369921893073,24.88711067486));
#435=CARTESIAN_POINT('',(-1.79095496048525,-1.11369921893073,24.88711067486));
#436=CARTESIAN_POINT('',(-1.80136585291275,-0.994702173965972,24.88711067486));
#437=CARTESIAN_POINT('',(-1.79095496048525,-1.11369921893074,-0.512889325140025));
#438=CARTESIAN_POINT('',(-1.79095496048525,-1.11369921893074,-0.512889325140025));
#439=CARTESIAN_POINT('',(-1.79095496048525,-1.11369921893073,24.88711067486));
#440=CARTESIAN_POINT('Origin',(-1.29285761143938,-1.0701213475569,24.88711067486));
#441=CARTESIAN_POINT('',(-1.29285761143938,-1.0701213475569,24.88711067486));
#442=CARTESIAN_POINT('',(-0.799896305703713,-1.0269928217481,24.88711067486));
#443=CARTESIAN_POINT('',(-1.29285761143938,-1.07012134755691,-0.512889325140025));
#444=CARTESIAN_POINT('',(-1.29285761143938,-1.07012134755691,-0.512889325140025));
#445=CARTESIAN_POINT('',(-1.29285761143938,-1.0701213475569,24.88711067486));
#446=CARTESIAN_POINT('Origin',(-1.33643548281321,-0.572023998511031,24.88711067486));
#447=CARTESIAN_POINT('',(-1.3250574395538,-0.702075628069207,24.88711067486));
#448=CARTESIAN_POINT('',(-1.33643548281321,-0.572023998511036,-0.512889325140025));
#449=CARTESIAN_POINT('Origin',(-1.56369522164923,-0.842861608720887,-0.512889325140025));
#450=CARTESIAN_POINT('Origin',(0.655715636731258,-0.3950698011307,24.88711067486));
#451=CARTESIAN_POINT('',(1.15381298577713,-0.351491929756871,24.88711067486));
#452=CARTESIAN_POINT('',(0.655715636731258,-0.3950698011307,24.88711067486));
#453=CARTESIAN_POINT('',(0.152485752179571,-0.439096711176432,24.88711067486));
#454=CARTESIAN_POINT('',(1.15381298577713,-0.351491929756871,24.88711067486));
#455=CARTESIAN_POINT('',(0.655715636731258,-0.3950698011307,24.88711067486));
#456=CARTESIAN_POINT('Origin',(0.699293508105087,-0.893167150176573,24.88711067486));
#457=CARTESIAN_POINT('',(0.699293508105087,-0.893167150176573,24.88711067486));
#458=CARTESIAN_POINT('',(0.688998246192707,-0.775491768047438,24.88711067486));
#459=CARTESIAN_POINT('',(0.699293508105087,-0.893167150176573,24.88711067486));
#460=CARTESIAN_POINT('Origin',(1.19739085715096,-0.849589278802744,24.88711067486));
#461=CARTESIAN_POINT('',(1.19739085715096,-0.849589278802744,24.88711067486));
#462=CARTESIAN_POINT('',(0.445112298076336,-0.91540512453539,24.88711067486));
#463=CARTESIAN_POINT('',(1.19739085715096,-0.849589278802744,24.88711067486));
#464=CARTESIAN_POINT('Origin',(1.15381298577713,-0.351491929756871,24.88711067486));
#465=CARTESIAN_POINT('',(1.16530665955166,-0.482865222150672,24.88711067486));
#466=CARTESIAN_POINT('Origin',(-1.70003076144123,-2.27127636336421,24.88711067486));
#467=CARTESIAN_POINT('',(-1.93064429795317,0.364648420691983,24.88711067486));
#468=CARTESIAN_POINT('',(-1.93064429795317,0.364648420691983,25.68711067486));
#469=CARTESIAN_POINT('',(-1.93064429795317,0.364648420691983,25.68711067486));
#470=CARTESIAN_POINT('',(-1.71345329916811,-2.11785605511024,24.88711067486));
#471=CARTESIAN_POINT('',(-1.76103978000093,-1.57394009028667,24.88711067486));
#472=CARTESIAN_POINT('',(-1.71345329916811,-2.11785605511024,25.68711067486));
#473=CARTESIAN_POINT('',(-1.71345329916811,-2.11785605511024,25.68711067486));
#474=CARTESIAN_POINT('',(-1.82204879856064,-0.876603817209131,25.68711067486));
#475=CARTESIAN_POINT('',(-1.76103978000093,-1.57394009028667,25.68711067486));
#476=CARTESIAN_POINT('',(-1.76103978000093,-1.57394009028667,25.68711067486));
#477=CARTESIAN_POINT('Origin',(-0.327756784823049,-0.745870206009768,25.68711067486));
#478=CARTESIAN_POINT('',(1.16653526231457,-0.61513659188828,25.68711067486));
#479=CARTESIAN_POINT('Origin',(-0.327756784823049,-0.745870206009768,25.68711067486));
#480=CARTESIAN_POINT('Origin',(-0.327756784823049,-0.745870206009768,25.68711067486));
#481=CARTESIAN_POINT('Origin',(-0.327756784823049,-0.745870206009768,25.68711067486));
#482=CARTESIAN_POINT('Origin',(-0.327756784823049,-0.745870206009767,28.68711067486));
#483=CARTESIAN_POINT('',(1.16653526231457,-0.615136591888279,28.68711067486));
#484=CARTESIAN_POINT('',(-0.197023170701561,-2.24016225314739,28.68711067486));
#485=CARTESIAN_POINT('Origin',(-0.327756784823049,-0.745870206009767,28.68711067486));
#486=CARTESIAN_POINT('',(-0.327756784823048,-0.745870206009767,30.18711067486));
#487=CARTESIAN_POINT('Origin',(-0.327756784823049,-0.745870206009767,28.68711067486));
#488=CARTESIAN_POINT('Origin',(-0.327756784823049,-0.745870206009767,28.68711067486));
#489=CARTESIAN_POINT('Origin',(-0.327756784823049,-0.745870206009768,25.68711067486));
#490=CARTESIAN_POINT('',(1.16653526231457,-0.61513659188828,25.68711067486));
#491=CARTESIAN_POINT('Origin',(-0.327756784823049,-0.745870206009768,25.68711067486));
#492=CARTESIAN_POINT('Origin',(-0.327756784823049,-0.745870206009768,24.88711067486));
#493=CARTESIAN_POINT('Origin',(-0.327756784823049,-0.745870206009768,24.88711067486));
#494=UNCERTAINTY_MEASURE_WITH_UNIT(LENGTH_MEASURE(0.01),#498,
'DISTANCE_ACCURACY_VALUE',
'Maximum model space distance between geometric entities at asserted c
onnectivities');
#495=UNCERTAINTY_MEASURE_WITH_UNIT(LENGTH_MEASURE(0.01),#498,
'DISTANCE_ACCURACY_VALUE',
'Maximum model space distance between geometric entities at asserted c
onnectivities');
#496=(
GEOMETRIC_REPRESENTATION_CONTEXT(3)
GLOBAL_UNCERTAINTY_ASSIGNED_CONTEXT((#494))
GLOBAL_UNIT_ASSIGNED_CONTEXT((#498,#500,#501))
REPRESENTATION_CONTEXT('','3D')
);
#497=(
GEOMETRIC_REPRESENTATION_CONTEXT(3)
GLOBAL_UNCERTAINTY_ASSIGNED_CONTEXT((#495))
GLOBAL_UNIT_ASSIGNED_CONTEXT((#498,#500,#501))
REPRESENTATION_CONTEXT('','3D')
);
#498=(
LENGTH_UNIT()
NAMED_UNIT(*)
SI_UNIT(.MILLI.,.METRE.)
);
#499=(
LENGTH_UNIT()
NAMED_UNIT(*)
SI_UNIT($,.METRE.)
);
#500=(
NAMED_UNIT(*)
PLANE_ANGLE_UNIT()
SI_UNIT($,.RADIAN.)
);
#501=(
NAMED_UNIT(*)
SI_UNIT($,.STERADIAN.)
SOLID_ANGLE_UNIT()
);
#502=SHAPE_DEFINITION_REPRESENTATION(#503,#504);
#503=PRODUCT_DEFINITION_SHAPE('',$,#506);
#504=SHAPE_REPRESENTATION('',(#313),#496);
#505=PRODUCT_DEFINITION_CONTEXT('part definition',#510,'design');
#506=PRODUCT_DEFINITION('OscarML_Led 3mm Rojo',
'OscarML_Led 3mm Rojo v2',#507,#505);
#507=PRODUCT_DEFINITION_FORMATION('',$,#512);
#508=PRODUCT_RELATED_PRODUCT_CATEGORY('OscarML_Led 3mm Rojo v2',
'OscarML_Led 3mm Rojo v2',(#512));
#509=APPLICATION_PROTOCOL_DEFINITION('international standard',
'automotive_design',2009,#510);
#510=APPLICATION_CONTEXT(
'Core Data for Automotive Mechanical Design Process');
#511=PRODUCT_CONTEXT('part definition',#510,'mechanical');
#512=PRODUCT('OscarML_Led 3mm Rojo','OscarML_Led 3mm Rojo v2',$,(#511));
#513=PRESENTATION_STYLE_ASSIGNMENT((#516));
#514=PRESENTATION_STYLE_ASSIGNMENT((#517));
#515=PRESENTATION_STYLE_ASSIGNMENT((#518));
#516=SURFACE_STYLE_USAGE(.BOTH.,#519);
#517=SURFACE_STYLE_USAGE(.BOTH.,#520);
#518=SURFACE_STYLE_USAGE(.BOTH.,#521);
#519=SURFACE_SIDE_STYLE('',(#522));
#520=SURFACE_SIDE_STYLE('',(#523));
#521=SURFACE_SIDE_STYLE('',(#524));
#522=SURFACE_STYLE_FILL_AREA(#525);
#523=SURFACE_STYLE_FILL_AREA(#526);
#524=SURFACE_STYLE_FILL_AREA(#527);
#525=FILL_AREA_STYLE('Acero - Satinado',(#528));
#526=FILL_AREA_STYLE('Aluminio - Pulido',(#529));
#527=FILL_AREA_STYLE('Pl\X\E1stico - Mate transl\X\FAcido (verde)',(#530));
#528=FILL_AREA_STYLE_COLOUR('Acero - Satinado',#531);
#529=FILL_AREA_STYLE_COLOUR('Aluminio - Pulido',#532);
#530=FILL_AREA_STYLE_COLOUR('Pl\X\E1stico - Mate transl\X\FAcido (verd
e)',#533);
#531=COLOUR_RGB('Acero - Satinado',0.627450980392157,0.627450980392157,
0.627450980392157);
#532=COLOUR_RGB('Aluminio - Pulido',0.96078431372549,0.96078431372549,0.964705882352941);
#533=COLOUR_RGB('Pl\X\E1stico - Mate transl\X\FAcido (verde)',0.266666666666667,
0.588235294117647,0.282352941176471);
ENDSEC;
END-ISO-10303-21;
